HIERARCHY
ROOT Root
{
  OFFSET 0.0 0.0 0.0
  CHANNELS 6 Xposition Yposition Zposition Zrotation Yrotation Xrotation
  JOINT Hips
  {
    OFFSET 0.0 100.0 0.0
    CHANNELS 6 Xposition Yposition Zposition Zrotation Yrotation Xrotation
    JOINT Spine1
    {
      OFFSET -0.013727 5.003763 -0.053727
      CHANNELS 3 Zrotation Yrotation Xrotation
      JOINT Spine2
      {
        OFFSET -0.0 7.125301 -0.029825
        CHANNELS 3 Zrotation Yrotation Xrotation
        JOINT Chest
        {
          OFFSET -1e-06 7.550063 -0.815971
          CHANNELS 3 Zrotation Yrotation Xrotation
          JOINT Neck1
          {
            OFFSET -0.181677 26.311295 -0.553348
            CHANNELS 3 Zrotation Yrotation Xrotation
            JOINT Neck2
            {
              OFFSET -3e-06 7.709397 2.302585
              CHANNELS 3 Zrotation Yrotation Xrotation
              JOINT Head
              {
                OFFSET -5e-06 6.128916 1.953709
                CHANNELS 3 Zrotation Yrotation Xrotation
                JOINT HeadEnd
                {
                  OFFSET 0.003598 16.065403 -1.835379
                  CHANNELS 3 Zrotation Yrotation Xrotation
                }
                JOINT Jaw
                {
                  OFFSET 0.002637 0.475592 3.094941
                  CHANNELS 3 Zrotation Yrotation Xrotation
                }
                JOINT LeftEye
                {
                  OFFSET 3.206381 5.380205 7.586883
                  CHANNELS 3 Zrotation Yrotation Xrotation
                }
                JOINT RightEye
                {
                  OFFSET -3.22244 5.361869 7.558234
                  CHANNELS 3 Zrotation Yrotation Xrotation
                }
              }
            }
          }
          JOINT LeftShoulder
          {
            OFFSET 1.621652 23.237164 5.113413
            CHANNELS 3 Zrotation Yrotation Xrotation
            JOINT LeftArm
            {
              OFFSET 14.919846 2e-06 -5.502326
              CHANNELS 3 Zrotation Yrotation Xrotation
              JOINT LeftForeArm
              {
                OFFSET 28.739307 0.0 -0.002588
                CHANNELS 3 Zrotation Yrotation Xrotation
                JOINT LeftHand
                {
                  OFFSET 27.093981 -1e-06 0.002609
                  CHANNELS 3 Zrotation Yrotation Xrotation
                  JOINT LeftHandThumb1
                  {
                    OFFSET 2.276482 -1.392045 3.191413
                    CHANNELS 3 Zrotation Yrotation Xrotation
                    JOINT LeftHandThumb2
                    {
                      OFFSET 4.012836 -1.828127 1.641654
                      CHANNELS 3 Zrotation Yrotation Xrotation
                      JOINT LeftHandThumb3
                      {
                        OFFSET 2.798515 0.0 -3e-06
                        CHANNELS 3 Zrotation Yrotation Xrotation
                        JOINT LeftHandThumbEnd
                        {
                          OFFSET 3.180793 -4e-06 4e-06
                          CHANNELS 3 Zrotation Yrotation Xrotation
                        }
                      }
                    }
                  }
                  JOINT LeftHandIndex1
                  {
                    OFFSET 3.247555 -0.531998 2.296169
                    CHANNELS 3 Zrotation Yrotation Xrotation
                    JOINT LeftHandIndex2
                    {
                      OFFSET 6.364578 0.01206 0.1786
                      CHANNELS 3 Zrotation Yrotation Xrotation
                      JOINT LeftHandIndex3
                      {
                        OFFSET 3.662364 0.0 0.0
                        CHANNELS 3 Zrotation Yrotation Xrotation
                        JOINT LeftHandIndex4
                        {
                          OFFSET 2.329242 4e-06 4e-06
                          CHANNELS 3 Zrotation Yrotation Xrotation
                          JOINT LeftHandIndexEnd
                          {
                            OFFSET 2.759615 -0.180537 -0.113024
                            CHANNELS 3 Zrotation Yrotation Xrotation
                          }
                        }
                      }
                    }
                  }
                  JOINT LeftHandMiddle1
                  {
                    OFFSET 3.163495 0.240981 1.000332
                    CHANNELS 3 Zrotation Yrotation Xrotation
                    JOINT LeftHandMiddle2
                    {
                      OFFSET 6.19078 -0.259278 -1.002548
                      CHANNELS 3 Zrotation Yrotation Xrotation
                      JOINT LeftHandMiddle3
                      {
                        OFFSET 4.35652 -4e-06 -1e-06
                        CHANNELS 3 Zrotation Yrotation Xrotation
                        JOINT LeftHandMiddle4
                        {
                          OFFSET 2.996877 -8e-06 0.0
                          CHANNELS 3 Zrotation Yrotation Xrotation
                          JOINT LeftHandMiddleEnd
                          {
                            OFFSET 2.304287 -0.294569 -0.031741
                            CHANNELS 3 Zrotation Yrotation Xrotation
                          }
                        }
                      }
                    }
                  }
                  JOINT LeftHandRing1
                  {
                    OFFSET 2.882643 -0.053652 -0.322543
                    CHANNELS 3 Zrotation Yrotation Xrotation
                    JOINT LeftHandRing2
                    {
                      OFFSET 5.854541 -0.486202 -1.373841
                      CHANNELS 3 Zrotation Yrotation Xrotation
                      JOINT LeftHandRing3
                      {
                        OFFSET 4.350578 0.0 3e-06
                        CHANNELS 3 Zrotation Yrotation Xrotation
                        JOINT LeftHandRing4
                        {
                          OFFSET 2.651321 7e-06 2e-06
                          CHANNELS 3 Zrotation Yrotation Xrotation
                          JOINT LeftHandRingEnd
                          {
                            OFFSET 1.936105 0.077687 -7.1e-05
                            CHANNELS 3 Zrotation Yrotation Xrotation
                          }
                        }
                      }
                    }
                  }
                  JOINT LeftHandPinky1
                  {
                    OFFSET 2.8655 -0.310005 -1.600378
                    CHANNELS 3 Zrotation Yrotation Xrotation
                    JOINT LeftHandPinky2
                    {
                      OFFSET 5.087849 -1.331141 -1.77123
                      CHANNELS 3 Zrotation Yrotation Xrotation
                      JOINT LeftHandPinky3
                      {
                        OFFSET 3.070974 4e-06 0.0
                        CHANNELS 3 Zrotation Yrotation Xrotation
                        JOINT LeftHandPinky4
                        {
                          OFFSET 1.549672 0.0 1e-06
                          CHANNELS 3 Zrotation Yrotation Xrotation
                          JOINT LeftHandPinkyEnd
                          {
                            OFFSET 1.944893 -0.157802 0.057219
                            CHANNELS 3 Zrotation Yrotation Xrotation
                          }
                        }
                      }
                    }
                  }
                }
              }
            }
          }
          JOINT RightShoulder
          {
            OFFSET -1.380118 23.180309 5.214158
            CHANNELS 3 Zrotation Yrotation Xrotation
            JOINT RightArm
            {
              OFFSET -15.037196 1.2e-05 -5.545604
              CHANNELS 3 Zrotation Yrotation Xrotation
              JOINT RightForeArm
              {
                OFFSET -28.736639 2e-06 -0.002597
                CHANNELS 3 Zrotation Yrotation Xrotation
                JOINT RightHand
                {
                  OFFSET -27.133619 -0.0 0.002613
                  CHANNELS 3 Zrotation Yrotation Xrotation
                  JOINT RightHandThumb1
                  {
                    OFFSET -2.274032 -1.383988 3.163127
                    CHANNELS 3 Zrotation Yrotation Xrotation
                    JOINT RightHandThumb2
                    {
                      OFFSET -4.011429 -1.827466 1.640914
                      CHANNELS 3 Zrotation Yrotation Xrotation
                      JOINT RightHandThumb3
                      {
                        OFFSET -2.794935 -4e-06 -3e-06
                        CHANNELS 3 Zrotation Yrotation Xrotation
                        JOINT RightHandThumbEnd
                        {
                          OFFSET -3.183852 4e-06 1e-06
                          CHANNELS 3 Zrotation Yrotation Xrotation
                        }
                      }
                    }
                  }
                  JOINT RightHandIndex1
                  {
                    OFFSET -3.253266 -0.520057 2.282866
                    CHANNELS 3 Zrotation Yrotation Xrotation
                    JOINT RightHandIndex2
                    {
                      OFFSET -6.341917 0.012471 0.178266
                      CHANNELS 3 Zrotation Yrotation Xrotation
                      JOINT RightHandIndex3
                      {
                        OFFSET -3.654871 -8e-06 -0.0
                        CHANNELS 3 Zrotation Yrotation Xrotation
                        JOINT RightHandIndex4
                        {
                          OFFSET -2.327586 0.0 1e-06
                          CHANNELS 3 Zrotation Yrotation Xrotation
                          JOINT RightHandIndexEnd
                          {
                            OFFSET -2.76179 -0.180656 -0.113078
                            CHANNELS 3 Zrotation Yrotation Xrotation
                          }
                        }
                      }
                    }
                  }
                  JOINT RightHandMiddle1
                  {
                    OFFSET -3.168106 0.246593 1.00103
                    CHANNELS 3 Zrotation Yrotation Xrotation
                    JOINT RightHandMiddle2
                    {
                      OFFSET -6.180828 -0.258836 -1.000895
                      CHANNELS 3 Zrotation Yrotation Xrotation
                      JOINT RightHandMiddle3
                      {
                        OFFSET -4.348901 0.0 -0.0
                        CHANNELS 3 Zrotation Yrotation Xrotation
                        JOINT RightHandMiddle4
                        {
                          OFFSET -3.00024 -4e-06 -2e-06
                          CHANNELS 3 Zrotation Yrotation Xrotation
                          JOINT RightHandMiddleEnd
                          {
                            OFFSET -2.30252 -0.29437 -0.031706
                            CHANNELS 3 Zrotation Yrotation Xrotation
                          }
                        }
                      }
                    }
                  }
                  JOINT RightHandRing1
                  {
                    OFFSET -2.88569 -0.067952 -0.308858
                    CHANNELS 3 Zrotation Yrotation Xrotation
                    JOINT RightHandRing2
                    {
                      OFFSET -5.854198 -0.48613 -1.373731
                      CHANNELS 3 Zrotation Yrotation Xrotation
                      JOINT RightHandRing3
                      {
                        OFFSET -4.33881 -4e-06 -0.0
                        CHANNELS 3 Zrotation Yrotation Xrotation
                        JOINT RightHandRing4
                        {
                          OFFSET -2.654903 -4e-06 4e-06
                          CHANNELS 3 Zrotation Yrotation Xrotation
                          JOINT RightHandRingEnd
                          {
                            OFFSET -1.933568 0.077527 -5.2e-05
                            CHANNELS 3 Zrotation Yrotation Xrotation
                          }
                        }
                      }
                    }
                  }
                  JOINT RightHandPinky1
                  {
                    OFFSET -2.866425 -0.342796 -1.584145
                    CHANNELS 3 Zrotation Yrotation Xrotation
                    JOINT RightHandPinky2
                    {
                      OFFSET -5.091371 -1.332055 -1.772385
                      CHANNELS 3 Zrotation Yrotation Xrotation
                      JOINT RightHandPinky3
                      {
                        OFFSET -3.062664 -4e-06 1e-06
                        CHANNELS 3 Zrotation Yrotation Xrotation
                        JOINT RightHandPinky4
                        {
                          OFFSET -1.546529 4e-06 -2e-06
                          CHANNELS 3 Zrotation Yrotation Xrotation
                          JOINT RightHandPinkyEnd
                          {
                            OFFSET -1.945119 -0.157718 0.057211
                            CHANNELS 3 Zrotation Yrotation Xrotation
                          }
                        }
                      }
                    }
                  }
                }
              }
            }
          }
        }
      }
    }
    JOINT LeftLeg
    {
      OFFSET 10.043214 -8.434526 2.595655
      CHANNELS 3 Zrotation Yrotation Xrotation
      JOINT LeftShin
      {
        OFFSET -1e-06 -43.221752 -0.802913
        CHANNELS 3 Zrotation Yrotation Xrotation
        JOINT LeftFoot
        {
          OFFSET 1e-06 -42.155094 -3.481523
          CHANNELS 3 Zrotation Yrotation Xrotation
          JOINT LeftToeBase
          {
            OFFSET 0.0 -5.059472 13.231529
            CHANNELS 3 Zrotation Yrotation Xrotation
            JOINT LeftToeEnd
            {
              OFFSET -0.009607 -1.647619 6.513017
              CHANNELS 3 Zrotation Yrotation Xrotation
            }
          }
        }
      }
    }
    JOINT RightLeg
    {
      OFFSET -10.047278 -8.29526 2.620317
      CHANNELS 3 Zrotation Yrotation Xrotation
      JOINT RightShin
      {
        OFFSET 1e-06 -43.362206 -0.805556
        CHANNELS 3 Zrotation Yrotation Xrotation
        JOINT RightFoot
        {
          OFFSET 2e-06 -42.117393 -3.478398
          CHANNELS 3 Zrotation Yrotation Xrotation
          JOINT RightToeBase
          {
            OFFSET -0.0 -5.079609 13.284196
            CHANNELS 3 Zrotation Yrotation Xrotation
            JOINT RightToeEnd
            {
              OFFSET 0.009532 -1.634378 6.460591
              CHANNELS 3 Zrotation Yrotation Xrotation
            }
          }
        }
      }
    }
  }
}
MOTION
Frames: 4
Frame Time: 0.03333333333333333
0.0 0.0 0.0 0.0 -0.0 0.0 -3.107025 96.309837 0.841146 -5.05702 -0.677599 4.440442 -0.53817 -0.198185 -1.111174 -0.206423 -2.702402 -5.326696 4.139332 -3.4553 13.474566 3.194104 1.247149 0.255192 -1.098015 0.186337 -3.563491 1.009229 -1.529838 -16.307549 7.7e-05 -2.2e-05 6e-06 0.012137 -0.098107 -0.024704 0.677001 -3.847643 -10.518896 -0.646086 3.662378 -10.501801 -19.815538 -9.629752 15.687277 -48.314747 -16.346073 5.102574 0.658153 -34.125259 0.013381 -5.725213 9.616212 6.476817 -5.88211 9.86129 0.702592 -10.93688 -0.360576 7.156211 3e-06 8.77483 3e-06 -16.912779 18.46104 6.061 -1.844035 2.498506 -2.507279 -10.16361 4.678947 4.621112 -20.976044 -7e-06 2e-06 -21.226305 2.451694 -3.594002 0.0 -6e-06 0.0 -1.362683 2.2408 -0.746324 -21.334934 0.584907 3.008323 -13.821225 -6e-06 0.0 -23.887196 -0.249084 -0.83948 -61.890667 2.258431 -0.822024 -0.294025 1.679689 0.833256 -14.218223 0.093213 1.300582 -34.212082 -0.287569 0.967173 -20.033232 0.964534 1.212846 1e-06 1e-06 0.0 -3.440391 0.788233 0.501655 -15.928201 -3.167314 2.99971 -6.338831 -2e-06 -2e-06 -18.123463 3.648182 -4.905673 -5e-06 0.0 -2e-06 18.51296 8.692211 15.076037 60.389706 5.212197 12.442086 -0.543588 17.022434 0.016072 7.247141 -1.458977 1.166489 2.243541 -5.255037 -3.180158 14.282894 -0.826593 6.952505 -3e-06 -12.690608 1e-06 16.132729 -18.040442 2.33385 1.665667 -1.955922 -2.878301 4.727799 -4.170587 4.993926 11.02053 4e-06 -2e-06 12.109055 -3.735715 -2.866786 -1e-06 -1e-06 -1e-06 1.291986 -1.92855 -1.498091 14.800136 0.56747 3.86561 14.242578 -1.341735 -6.660661 19.631973 0.143927 -0.648243 49.283035 -0.080101 -6.552577 0.353029 -1.511151 -0.03194 20.222797 3.684313 2.316631 18.787283 7e-06 0.0 10.751631 -0.479869 1.397907 -2e-06 -0.0 -0.0 3.273808 0.305947 -0.58011 21.48682 11.83038 2.266135 8.16293 2e-06 -1e-06 18.399084 -3.798986 -4.940573 4e-06 0.0 -1e-06 3.966622 -3.574092 17.250107 0.084259 0.0242 12.882327 1.264722 -2.777582 2.227753 2.249662 -1.869899 -20.847288 -0.0 0.0 2e-06 8.316903 -4.212512 -30.973476 -0.033518 -0.161871 18.058857 -0.90794 -0.584646 9.966822 -1.329236 1.054785 -2.643158 0.0 0.0 -1e-06 
0.0 0.0 0.0 0.0 -0.0 0.0 -3.688035 97.081718 3.185856 -6.242207 -0.913333 3.970211 0.13374 -0.086958 -1.061067 0.021968 -2.696702 -5.325729 4.579704 -3.294456 13.015236 2.934024 1.436295 1.135336 -1.119666 -0.048071 -3.586611 1.045248 -1.226478 -15.644712 7.7e-05 -2.2e-05 7e-06 0.013989 -0.084043 -0.028293 0.686539 -3.831017 -10.52177 -0.651483 3.668902 -10.506127 -19.174051 -8.888012 15.73296 -50.313637 -14.811738 6.237655 0.622104 -34.206005 -0.07798 -5.850379 8.852552 6.094259 -5.882111 9.861293 0.702591 -10.93688 -0.360575 7.156211 1e-06 8.774833 2e-06 -16.963966 18.162216 5.781424 -1.844034 2.498506 -2.507279 -10.163606 4.678948 4.621113 -20.976038 -4e-06 0.0 -21.226303 2.451698 -3.594002 1e-06 -5e-06 -1e-06 -1.362682 2.240799 -0.746324 -21.33493 0.58491 3.008325 -13.821222 -3e-06 1e-06 -23.887188 -0.249078 -0.839482 -61.252945 2.087659 -0.872226 -0.294025 1.679688 0.833256 -14.218219 0.093215 1.300581 -34.212074 -0.287563 0.967171 -20.03323 0.964536 1.212843 2e-06 -0.0 0.0 -3.440391 0.788234 0.501657 -15.928201 -3.167312 2.999709 -6.338831 -2e-06 0.0 -18.123459 3.648185 -4.905674 -3e-06 -1e-06 -1e-06 17.666042 9.075968 15.395836 60.874908 6.03399 12.939283 -0.490064 17.119732 -0.001161 7.82303 -1.636905 0.285643 2.243542 -5.255039 -3.180159 14.282899 -0.826595 6.952507 -1e-06 -12.690614 -0.0 16.155313 -18.247763 2.378744 1.665667 -1.955922 -2.8783 4.727801 -4.170589 4.993927 11.020534 4e-06 -1e-06 12.109059 -3.735717 -2.866785 0.0 -0.0 -0.0 1.291986 -1.92855 -1.498091 14.800136 0.567469 3.865611 14.24258 -1.341737 -6.660659 19.631975 0.143926 -0.648245 49.365513 -0.208089 -6.625846 0.353029 -1.511151 -0.031939 20.222803 3.684313 2.316633 18.787287 5e-06 -0.0 10.751635 -0.479869 1.397909 -2e-06 1e-06 -0.0 3.273809 0.305947 -0.580111 21.486826 11.830382 2.266136 8.162931 2e-06 -1e-06 18.399094 -3.798987 -4.940577 3e-06 1e-06 -1e-06 6.057404 -2.77909 14.111389 0.007751 -0.171419 22.539364 -0.487261 -3.123678 10.385484 2.351802 -1.6845 -24.595684 0.0 -0.0 3e-06 9.639019 -3.640344 -27.393623 0.011538 -0.242995 15.421185 -1.103214 -0.967632 9.920798 -1.366591 1.040767 -1.860504 0.0 -0.0 -1e-06 
0.0 0.0 0.0 0.0 -0.0 0.0 -4.736338 97.757812 7.61212 -6.990667 -1.024216 3.145708 0.580629 0.059172 -0.641156 0.150324 -2.39166 -5.196869 4.860943 -3.16186 12.606947 2.751556 1.512588 1.889914 -1.060351 -0.354592 -3.623974 1.054219 -1.156067 -15.015952 7.7e-05 -2.3e-05 6e-06 0.023366 -0.029153 -0.023451 0.694206 -3.765777 -10.522222 -0.64123 3.709144 -10.508797 -18.915411 -8.322664 15.723142 -51.653702 -13.383322 7.086156 0.55224 -34.367443 -0.097212 -6.129232 8.781504 5.983593 -5.88211 9.861292 0.702591 -10.936877 -0.360575 7.156207 0.0 8.774831 1e-06 -16.959135 17.965103 5.701791 -1.844033 2.498506 -2.507282 -10.163604 4.678947 4.621109 -20.976034 -3e-06 -0.0 -21.226301 2.451698 -3.594005 1e-06 -5e-06 1e-06 -1.362682 2.240799 -0.746325 -21.334925 0.584909 3.008322 -13.821218 -3e-06 -0.0 -23.887182 -0.24908 -0.839484 -60.93259 2.073071 -0.870857 -0.294025 1.679688 0.833255 -14.218215 0.093215 1.30058 -34.212067 -0.287566 0.967167 -20.033226 0.964535 1.212843 0.0 0.0 -0.0 -3.44039 0.788233 0.501657 -15.928192 -3.167312 2.999709 -6.338829 -1e-06 0.0 -18.123457 3.648185 -4.905674 -3e-06 0.0 -1e-06 16.975063 9.44917 15.482856 61.127975 7.05258 13.156837 -0.441382 18.040977 -0.005122 7.994657 -1.570711 -1.100956 2.243542 -5.255038 -3.180158 14.282892 -0.826596 6.9525 -1e-06 -12.690607 -0.0 16.222227 -18.266399 2.406523 1.665667 -1.955922 -2.878298 4.7278 -4.170589 4.993922 11.020528 2e-06 -2e-06 12.109054 -3.735719 -2.866785 -0.0 -0.0 -0.0 1.291986 -1.92855 -1.498087 14.800129 0.567467 3.865608 14.242572 -1.34174 -6.660657 19.631968 0.143925 -0.648246 49.544785 -0.326539 -6.598971 0.353029 -1.511151 -0.031941 20.22279 3.684309 2.31663 18.78727 3e-06 -3e-06 10.751627 -0.479869 1.397905 -1e-06 1e-06 -0.0 3.273807 0.305947 -0.580111 21.486813 11.830377 2.266133 8.162926 1e-06 -1e-06 18.399086 -3.798987 -4.940578 3e-06 0.0 -1e-06 7.839602 -2.131597 9.027554 -0.033833 -0.244197 34.631104 -4.232466 -1.685717 19.2353 2.106992 -1.657279 -16.50281 0.0 -0.0 1e-06 10.740071 -3.514403 -23.522221 0.077874 -0.253368 15.71192 -1.566096 -1.166169 6.629456 -1.401918 1.026979 -1.273212 0.0 -0.0 -1e-06 
0.0 0.0 0.0 0.0 -0.0 0.0 -5.654186 98.342529 11.766318 -7.420253 -1.102544 2.31989 0.963854 0.211334 -0.263373 0.224995 -1.891794 -5.034854 4.909305 -2.968263 12.435337 2.58471 1.508032 2.505507 -0.965846 -0.451693 -3.653224 1.115636 -1.343836 -14.75937 7.7e-05 -2.3e-05 6e-06 0.022431 -0.007162 -0.022605 0.692815 -3.733137 -10.532247 -0.643203 3.717899 -10.511581 -19.487276 -7.669674 15.679398 -51.879833 -12.364692 7.754412 0.567728 -34.308117 -0.079614 -5.989524 8.86852 5.872807 -5.882108 9.861286 0.70259 -10.936876 -0.360576 7.156208 1e-06 8.774828 -0.0 -16.906721 17.898342 5.754234 -1.844033 2.498505 -2.507278 -10.163604 4.678945 4.621107 -20.976032 -6e-06 0.0 -21.226295 2.451696 -3.593999 0.0 -5e-06 -1e-06 -1.362681 2.240798 -0.746322 -21.334921 0.584909 3.008324 -13.821218 -3e-06 2e-06 -23.887177 -0.24908 -0.839482 -60.89529 2.178439 -0.869361 -0.294024 1.679687 0.833258 -14.218212 0.093215 1.300581 -34.212063 -0.287568 0.967171 -20.033218 0.964536 1.212844 0.0 0.0 -1e-06 -3.44039 0.788235 0.501656 -15.928192 -3.167311 2.999708 -6.338829 -2e-06 1e-06 -18.123457 3.648181 -4.905673 -3e-06 1e-06 0.0 16.752645 9.799391 15.401956 60.671398 8.370447 12.948586 -0.217852 19.492599 -0.037305 7.438683 -1.182009 -2.1277 2.243542 -5.255037 -3.180159 14.282896 -0.826595 6.952506 -4e-06 -12.690607 2e-06 16.29776 -18.133818 2.411793 1.665667 -1.955922 -2.8783 4.7278 -4.170588 4.993926 11.020531 3e-06 -2e-06 12.109058 -3.735716 -2.866786 1e-06 -0.0 -1e-06 1.291986 -1.928549 -1.49809 14.800136 0.567469 3.865608 14.24258 -1.341735 -6.660659 19.631979 0.143928 -0.648245 49.737473 -0.429353 -6.516556 0.353029 -1.511151 -0.03194 20.222801 3.684311 2.316631 18.787283 6e-06 -1e-06 10.751634 -0.479869 1.397907 -1e-06 2e-06 -1e-06 3.273808 0.305947 -0.58011 21.486824 11.830377 2.266134 8.16293 2e-06 -0.0 18.399092 -3.798985 -4.940577 4e-06 0.0 -2e-06 8.881123 -1.566476 3.287738 0.025085 -0.34336 45.612484 -6.954785 1.297765 22.611153 1.920537 -1.845482 -6.648457 -0.0 -0.0 2e-06 11.52634 -3.680951 -19.078482 0.044246 -0.220875 14.40027 -2.053861 -1.143264 4.10293 -1.422856 0.98241 -0.923046 0.0 -0.0 -1e-06 
